<svg width="405" height="375" viewBox="0 0 405 375" fill="none" xmlns="http://www.w3.org/2000/svg">
<path d="M395.501 285.582C395.279 283.509 394.346 281.896 392.7 280.74C391.071 279.585 388.95 279.008 386.34 279.008C384.504 279.008 382.93 279.285 381.617 279.839C380.303 280.392 379.299 281.144 378.602 282.093C377.906 283.043 377.55 284.126 377.534 285.345C377.534 286.358 377.764 287.236 378.223 287.979C378.697 288.723 379.338 289.356 380.145 289.878C380.952 290.384 381.846 290.812 382.827 291.16C383.808 291.508 384.797 291.801 385.794 292.038L390.351 293.177C392.186 293.604 393.95 294.182 395.643 294.91C397.352 295.637 398.879 296.555 400.224 297.663C401.585 298.77 402.661 300.107 403.452 301.674C404.243 303.24 404.639 305.076 404.639 307.18C404.639 310.028 403.911 312.536 402.455 314.704C400.999 316.856 398.895 318.541 396.142 319.759C393.405 320.962 390.09 321.563 386.197 321.563C382.416 321.563 379.132 320.977 376.348 319.807C373.579 318.636 371.411 316.927 369.845 314.68C368.294 312.433 367.455 309.696 367.329 306.468H375.992C376.118 308.161 376.64 309.569 377.558 310.693C378.476 311.816 379.67 312.655 381.142 313.209C382.629 313.762 384.291 314.039 386.126 314.039C388.041 314.039 389.718 313.754 391.158 313.185C392.613 312.599 393.753 311.792 394.575 310.764C395.398 309.72 395.817 308.501 395.833 307.109C395.817 305.843 395.446 304.799 394.718 303.976C393.99 303.137 392.969 302.441 391.656 301.887C390.359 301.318 388.84 300.811 387.099 300.368L381.569 298.944C377.566 297.916 374.402 296.357 372.076 294.269C369.765 292.164 368.61 289.372 368.61 285.891C368.61 283.027 369.386 280.519 370.936 278.367C372.503 276.215 374.631 274.546 377.321 273.359C380.011 272.157 383.056 271.555 386.458 271.555C389.908 271.555 392.93 272.157 395.525 273.359C398.135 274.546 400.185 276.199 401.672 278.32C403.159 280.424 403.927 282.845 403.974 285.582H395.501Z" fill="#2B4C80"/>
<path d="M337.342 272.22H346.147V303.976C346.147 307.457 345.325 310.519 343.679 313.161C342.049 315.803 339.755 317.868 336.796 319.356C333.837 320.827 330.38 321.563 326.424 321.563C322.453 321.563 318.988 320.827 316.029 319.356C313.07 317.868 310.776 315.803 309.146 313.161C307.516 310.519 306.702 307.457 306.702 303.976V272.22H315.507V303.24C315.507 305.266 315.95 307.069 316.836 308.652C317.738 310.234 319.004 311.476 320.633 312.378C322.263 313.264 324.193 313.707 326.424 313.707C328.655 313.707 330.586 313.264 332.216 312.378C333.861 311.476 335.127 310.234 336.013 308.652C336.899 307.069 337.342 305.266 337.342 303.24V272.22Z" fill="#2B4C80"/>
<path d="M250.323 320.827V272.22H268.55C272.285 272.22 275.417 272.916 277.949 274.309C280.496 275.701 282.419 277.615 283.716 280.052C285.03 282.473 285.686 285.226 285.686 288.312C285.686 291.429 285.03 294.198 283.716 296.618C282.403 299.039 280.465 300.946 277.902 302.338C275.338 303.715 272.182 304.403 268.432 304.403H256.351V297.164H267.245C269.429 297.164 271.216 296.785 272.609 296.025C274.001 295.266 275.03 294.221 275.694 292.892C276.375 291.563 276.715 290.036 276.715 288.312C276.715 286.587 276.375 285.068 275.694 283.755C275.03 282.441 273.993 281.421 272.585 280.693C271.193 279.949 269.397 279.577 267.198 279.577H259.128V320.827H250.323Z" fill="#2B4C80"/>
<path d="M228.631 296.524C228.631 301.761 227.65 306.247 225.688 309.981C223.742 313.699 221.084 316.547 217.713 318.525C214.359 320.503 210.554 321.492 206.297 321.492C202.041 321.492 198.228 320.503 194.858 318.525C191.503 316.531 188.845 313.675 186.883 309.957C184.937 306.223 183.964 301.745 183.964 296.524C183.964 291.286 184.937 286.808 186.883 283.09C188.845 279.356 191.503 276.5 194.858 274.522C198.228 272.544 202.041 271.555 206.297 271.555C210.554 271.555 214.359 272.544 217.713 274.522C221.084 276.5 223.742 279.356 225.688 283.09C227.65 286.808 228.631 291.286 228.631 296.524ZM219.778 296.524C219.778 292.837 219.201 289.728 218.046 287.196C216.906 284.649 215.324 282.726 213.299 281.429C211.274 280.115 208.94 279.459 206.297 279.459C203.655 279.459 201.321 280.115 199.296 281.429C197.271 282.726 195.68 284.649 194.525 287.196C193.386 289.728 192.816 292.837 192.816 296.524C192.816 300.21 193.386 303.327 194.525 305.875C195.68 308.406 197.271 310.329 199.296 311.642C201.321 312.94 203.655 313.588 206.297 313.588C208.94 313.588 211.274 312.94 213.299 311.642C215.324 310.329 216.906 308.406 218.046 305.875C219.201 303.327 219.778 300.21 219.778 296.524Z" fill="#2B4C80"/>
<path d="M127.727 279.601V272.22H166.509V279.601H151.485V320.827H142.751V279.601H127.727Z" fill="#2B4C80"/>
<path d="M108.433 288.62H99.5562C99.303 287.164 98.8363 285.875 98.1559 284.751C97.4755 283.612 96.629 282.647 95.6164 281.856C94.6037 281.065 93.4487 280.471 92.1512 280.076C90.8696 279.665 89.4851 279.459 87.9978 279.459C85.3554 279.459 83.0136 280.123 80.9725 281.452C78.9314 282.766 77.3333 284.696 76.1782 287.244C75.0232 289.775 74.4457 292.869 74.4457 296.524C74.4457 300.242 75.0232 303.375 76.1782 305.922C77.3491 308.454 78.9472 310.368 80.9725 311.666C83.0136 312.947 85.3475 313.588 87.974 313.588C89.4297 313.588 90.7905 313.398 92.0563 313.019C93.3379 312.623 94.485 312.046 95.4977 311.286C96.5262 310.527 97.3885 309.593 98.0847 308.485C98.7967 307.378 99.2872 306.112 99.5562 304.688L108.433 304.736C108.1 307.046 107.38 309.213 106.273 311.239C105.181 313.264 103.749 315.052 101.977 316.602C100.205 318.137 98.1322 319.34 95.7588 320.21C93.3854 321.064 90.7509 321.492 87.8554 321.492C83.5832 321.492 79.77 320.503 76.4156 318.525C73.0612 316.547 70.4188 313.691 68.4884 309.957C66.5581 306.223 65.5929 301.745 65.5929 296.524C65.5929 291.286 66.566 286.808 68.5122 283.09C70.4584 279.356 73.1087 276.5 76.4631 274.522C79.8175 272.544 83.6149 271.555 87.8554 271.555C90.561 271.555 93.0768 271.935 95.4028 272.695C97.7287 273.454 99.8015 274.57 101.621 276.041C103.441 277.497 104.936 279.285 106.107 281.405C107.293 283.509 108.069 285.914 108.433 288.62Z" fill="#2B4C80"/>
<path d="M45.1354 296.524C45.1354 301.761 44.1544 306.247 42.1924 309.981C40.2462 313.699 37.588 316.547 34.2178 318.525C30.8634 320.503 27.058 321.492 22.8017 321.492C18.5455 321.492 14.7322 320.503 11.362 318.525C8.00757 316.531 5.34937 313.675 3.38736 309.957C1.44117 306.223 0.468077 301.745 0.468077 296.524C0.468077 291.286 1.44117 286.808 3.38736 283.09C5.34937 279.356 8.00757 276.5 11.362 274.522C14.7322 272.544 18.5455 271.555 22.8017 271.555C27.058 271.555 30.8634 272.544 34.2178 274.522C37.588 276.5 40.2462 279.356 42.1924 283.09C44.1544 286.808 45.1354 291.286 45.1354 296.524ZM36.2826 296.524C36.2826 292.837 35.7051 289.728 34.5501 287.196C33.4108 284.649 31.8286 282.726 29.8033 281.429C27.778 280.115 25.4441 279.459 22.8017 279.459C20.1594 279.459 17.8255 280.115 15.8002 281.429C13.7749 282.726 12.1848 284.649 11.0297 287.196C9.89047 289.728 9.32085 292.837 9.32085 296.524C9.32085 300.21 9.89047 303.327 11.0297 305.875C12.1848 308.406 13.7749 310.329 15.8002 311.642C17.8255 312.94 20.1594 313.588 22.8017 313.588C25.4441 313.588 27.778 312.94 29.8033 311.642C31.8286 310.329 33.4108 308.406 34.5501 305.875C35.7051 303.327 36.2826 300.21 36.2826 296.524Z" fill="#2B4C80"/>
<path d="M176.251 110.131C170.013 108.274 164.147 105.23 158.652 101.442C157.983 100.997 157.315 100.477 156.572 99.957C155.904 99.4372 155.236 98.9174 154.567 98.3976C153.899 97.8777 153.231 97.2836 152.636 96.7638C151.968 96.1697 151.374 95.6499 150.706 94.9816C148.181 92.6052 145.879 89.9318 143.799 86.8871C141.72 83.9167 139.938 80.5749 138.527 77.0104C138.23 76.1193 137.859 75.2281 137.561 74.2628L136.745 71.4408C136.299 69.5101 135.928 67.5793 135.705 65.6485L135.556 64.1633C135.482 63.6434 135.482 63.1979 135.482 62.6781C135.482 61.7127 135.408 60.673 135.408 59.7076L135.556 56.7372C135.556 55.7718 135.779 54.8064 135.853 53.7667C136.076 51.7617 136.522 49.9052 136.967 47.9744C137.19 47.009 137.487 46.1921 137.71 45.2267C137.933 44.3356 138.23 43.4445 138.527 42.5533C139.715 38.9888 141.275 35.4985 143.131 32.0825C144.988 28.6665 147.215 25.4733 149.74 22.4286C152.339 19.4582 155.087 16.562 158.206 14.0371C161.325 11.5123 164.741 9.28442 168.305 7.4279C171.944 5.57138 175.732 4.08616 179.593 2.89798C183.529 1.78407 187.539 1.04146 191.623 0.670155C195.708 0.29885 199.718 0.44737 203.802 0.818675C207.812 1.26424 211.748 2.08112 215.61 3.12077C219.397 4.30894 223.184 5.64564 226.675 7.35364C228.457 8.17051 230.165 9.1359 231.873 10.1013C232.69 10.6211 233.507 11.141 234.323 11.6608C235.14 12.1806 235.957 12.7004 236.7 13.2203C238.259 14.3342 239.819 15.3738 241.304 16.6363L243.532 18.4185L245.76 20.4236C248.73 23.1712 251.329 26.2159 253.78 29.4834C256.156 32.7509 258.236 36.1669 259.944 39.8057C261.651 43.3702 263.062 47.0833 264.028 50.8706C266.107 58.4452 266.776 66.1683 266.256 73.6687C265.736 81.2433 264.028 88.6694 260.909 95.7242C260.463 96.6153 260.092 97.5064 259.646 98.3233C259.201 99.2144 258.755 100.031 258.236 100.922C257.27 102.63 256.082 104.338 254.968 105.749C254.374 106.492 253.854 107.235 253.26 107.903L251.478 109.908C250.29 111.245 249.027 112.433 247.839 113.621C242.863 118.374 237.517 122.31 232.021 125.8C230.61 126.691 229.274 127.508 227.863 128.325C226.452 129.142 225.041 129.884 223.556 130.701C220.659 132.186 217.763 133.597 214.719 134.785C214.347 134.934 213.976 134.711 213.827 134.414C213.753 134.191 213.753 133.969 213.902 133.82C217.541 128.548 221.254 123.349 224.67 118.225C228.086 113.101 231.353 107.977 234.026 102.927C234.621 101.665 235.363 100.403 235.883 99.1402L236.7 97.2837L237.368 95.4271C237.591 94.833 237.888 94.2389 237.962 93.6449L238.408 92.0111C238.705 90.8972 238.928 89.709 239.15 88.5209C239.893 83.7682 239.967 78.7184 239.373 73.8172C238.779 68.916 237.591 64.2375 235.809 59.9304C234.026 55.6233 231.724 51.7617 228.902 48.4199C227.491 46.7119 225.932 45.2267 224.298 43.7415L223.036 42.7019L221.625 41.5879C220.659 40.8453 219.694 40.177 218.729 39.5086C214.793 36.8352 210.634 34.8302 206.401 33.4192C197.936 30.6716 189.024 30.7458 180.93 33.8648C172.835 36.9838 165.632 43.2217 160.805 51.8359C160.508 52.3558 160.211 52.9499 159.914 53.4697C159.617 53.9895 159.32 54.5836 159.023 55.1034C158.577 56.1431 157.983 57.257 157.686 58.2967C157.538 58.8165 157.241 59.4106 157.092 59.9304L156.647 61.5641C156.498 62.084 156.424 62.6781 156.275 63.2721C156.201 63.5692 156.127 63.8662 156.127 64.089L156.052 64.9059C155.83 66.0198 155.83 67.208 155.755 68.3961V70.1784C155.755 70.7725 155.83 71.3666 155.904 71.9607C156.127 74.4113 156.647 76.9362 157.463 79.461L158.132 81.3918L158.874 83.3226C159.394 84.585 159.988 85.8475 160.657 87.1099C160.954 87.7782 161.325 88.3723 161.696 88.9664C162.068 89.6348 162.439 90.2289 162.81 90.8229C163.181 91.4913 163.553 92.0854 163.998 92.6795C164.37 93.2736 164.815 93.9419 165.261 94.536C168.603 99.4372 172.613 104.19 177.068 108.646C177.291 108.868 177.291 109.314 177.068 109.537C176.697 110.131 176.474 110.205 176.251 110.131Z" fill="#2B4C80"/>
<path d="M167.934 168.872C166.004 170.283 164.221 171.768 162.513 173.327C160.88 174.887 159.32 176.669 157.983 178.377C155.236 181.941 153.082 185.877 151.671 189.887C150.26 193.897 149.592 198.056 149.74 201.843C149.815 203.774 150.186 205.631 150.632 207.339C150.706 207.784 150.929 208.156 151.003 208.601L151.448 209.864C151.82 210.755 152.191 211.646 152.562 212.537C153.379 214.245 154.196 215.879 155.236 217.29C156.275 218.701 157.464 219.74 158.726 220.557C159.988 221.374 161.177 221.968 162.439 222.636C163.107 222.934 163.776 223.231 164.444 223.528C165.187 223.825 166.004 224.047 166.82 224.196C168.454 224.567 170.237 224.79 172.167 224.79C174.098 224.716 176.103 224.419 178.108 223.825C179.148 223.528 180.113 223.082 181.153 222.636C182.118 222.117 183.158 221.597 184.123 220.928C186.054 219.666 187.836 218.181 189.619 216.547C189.916 216.25 190.361 216.324 190.584 216.547C190.807 216.77 190.807 217.067 190.733 217.29C189.767 219.518 188.653 221.82 187.317 223.973C185.98 226.127 184.346 228.28 182.49 230.211C180.559 232.216 178.331 234.073 175.732 235.484C173.133 236.969 170.162 237.934 167.118 238.38C165.558 238.603 163.999 238.677 162.365 238.603C160.731 238.528 159.097 238.306 157.464 237.86C154.196 236.969 151.226 235.261 148.775 233.107C146.324 230.954 144.394 228.429 142.76 225.904C141.126 223.379 139.864 220.706 138.973 218.032C138.527 216.696 138.082 215.359 137.784 214.022C137.636 213.354 137.487 212.537 137.339 211.794C137.265 211.052 137.116 210.309 137.116 209.567C136.893 206.596 137.116 203.7 137.636 200.878C138.676 195.308 140.903 190.184 143.8 185.803C149.666 177.04 158.28 170.728 167.563 167.758C167.934 167.609 168.306 167.832 168.454 168.203C168.306 168.426 168.231 168.723 167.934 168.872Z" fill="#2B4C80"/>
<path d="M154.79 160.109C151.002 162.039 147.215 163.97 143.576 166.049C139.938 168.129 136.373 170.134 133.031 172.51C129.69 174.886 126.645 177.486 123.823 180.308C123.08 180.976 122.412 181.718 121.744 182.387L120.778 183.426C120.63 183.649 120.481 183.724 120.333 183.872C120.184 184.021 120.11 184.169 119.961 184.318C118.996 185.506 118.179 186.768 117.585 187.956C116.248 190.407 115.506 192.858 115.06 195.382C114.837 196.645 114.763 197.982 114.837 199.318C114.837 199.69 114.837 199.987 114.837 200.358V201.175C114.837 201.62 114.912 202.14 115.06 202.734C115.654 205.036 117.214 207.858 119.59 210.383C120.184 210.977 120.778 211.646 121.521 212.24C122.189 212.834 122.932 213.428 123.749 214.022C125.382 215.136 127.165 216.176 129.318 217.215C129.69 217.364 129.838 217.809 129.69 218.181C129.615 218.329 129.541 218.403 129.393 218.478C128.873 218.775 128.353 219.072 127.759 219.369C127.165 219.666 126.645 219.889 126.051 220.037C124.863 220.408 123.6 220.705 122.338 220.78C119.813 221.077 117.139 220.854 114.54 220.186C111.941 219.517 109.416 218.403 107.114 216.77C104.812 215.21 102.659 213.131 100.951 210.606C100.059 209.344 99.3169 207.933 98.6485 206.373L98.203 205.185L97.8317 204.145C97.6089 203.477 97.4603 202.734 97.2376 202.066C96.5692 199.244 96.4207 196.274 96.6435 193.377C97.1633 187.511 99.5397 181.793 103.253 177.486C105.109 175.332 107.189 173.476 109.491 171.916C109.788 171.693 110.085 171.545 110.307 171.396C110.605 171.248 110.902 171.025 111.124 170.876L112.684 170.06C113.723 169.54 114.763 169.02 115.803 168.5C120.036 166.569 124.269 164.936 128.501 163.599C136.967 160.777 145.507 158.772 154.344 158.846C154.716 158.846 155.013 159.143 155.013 159.514C155.161 159.811 155.013 159.96 154.79 160.109Z" fill="#2B4C80"/>
<path d="M136.076 137.31C134.814 139.167 133.254 140.652 131.769 142.286C130.209 143.845 128.65 145.405 127.016 146.89C123.749 149.935 120.11 152.385 116.323 154.836C112.535 157.286 108.674 159.588 104.441 161.668C103.401 162.188 102.362 162.633 101.248 163.153L99.6139 163.821C99.3912 163.97 99.0199 164.044 98.7228 164.118C98.4258 164.193 98.0545 164.341 97.7574 164.415C95.1583 165.232 92.3364 165.678 89.5145 165.752C83.7964 165.901 77.8555 164.193 72.9543 160.925C70.5036 159.291 68.3501 157.286 66.5678 155.059C66.1222 154.464 65.6767 153.945 65.3054 153.351L64.7113 152.459L64.0429 151.346C63.2261 149.86 62.632 148.375 62.1864 146.964C61.2953 143.994 61.0725 141.098 61.221 138.276C61.4438 135.454 62.1122 132.78 63.2261 130.33C64.2657 127.879 65.7509 125.651 67.5332 123.869C68.4243 122.978 69.3897 122.161 70.4294 121.493C70.9492 121.121 71.469 120.824 72.0631 120.527C72.583 120.23 73.177 120.007 73.7711 119.785C74.1424 119.636 74.588 119.859 74.6623 120.23C74.7365 120.379 74.7365 120.527 74.6623 120.676C74.1424 122.978 73.7711 125.057 73.6969 126.988C73.6226 127.953 73.6226 128.919 73.6969 129.81C73.6969 130.701 73.8454 131.592 73.9939 132.483C74.5137 135.899 75.7019 138.87 77.1871 140.8C77.5584 141.246 77.9297 141.692 78.2268 141.989L78.8209 142.583C79.1179 142.806 79.3407 143.028 79.6377 143.251C80.6774 144.142 81.7913 144.885 82.9052 145.479C85.1331 146.741 87.5837 147.558 90.2571 148.078C91.5938 148.301 93.079 148.449 94.5642 148.449C94.787 148.449 94.9355 148.449 95.1583 148.449C95.3811 148.449 95.5296 148.449 95.7524 148.449L97.1633 148.301C98.1287 148.227 99.0941 148.078 100.06 148.004C103.921 147.558 107.931 146.741 111.793 145.553C115.729 144.439 119.442 142.806 123.377 141.395C125.308 140.652 127.313 139.909 129.244 139.092C131.175 138.276 133.106 137.31 135.111 136.493C135.482 136.345 135.853 136.493 136.002 136.865C136.225 136.865 136.225 137.087 136.076 137.31Z" fill="#2B4C80"/>
<path d="M129.541 120.528C128.576 121.27 127.536 121.938 126.497 122.533C125.457 123.127 124.343 123.646 123.229 124.092C121.001 124.983 118.625 125.726 116.174 126.171C113.724 126.617 111.199 126.914 108.674 126.84C108.006 126.84 107.412 126.84 106.743 126.765H105.778C105.481 126.765 105.11 126.691 104.738 126.691C103.327 126.543 101.991 126.246 100.654 125.949C95.3071 124.538 90.3316 121.716 86.2473 117.928C84.1679 115.998 82.3114 113.77 80.7519 111.171C79.9351 109.834 79.2667 108.497 78.6726 106.938C78.3756 106.195 78.0785 105.378 77.8558 104.487C77.7072 104.042 77.633 103.67 77.5587 103.299C77.4845 102.928 77.4102 102.556 77.3359 102.111C76.222 95.9472 77.1132 89.4122 80.2321 83.5456C81.049 82.0604 82.0144 80.6494 83.1283 79.3127C84.3165 77.976 85.5789 76.7136 87.1384 75.6739C87.881 75.1541 88.6979 74.6343 89.589 74.263C90.4059 73.8174 91.297 73.5204 92.1139 73.1491C93.8219 72.555 95.5299 72.1837 97.2379 72.0351C100.58 71.7381 103.773 72.2579 106.669 73.2233C108.08 73.7431 109.491 74.3372 110.828 75.1541C112.164 75.971 113.427 76.8621 114.541 77.9017C116.843 79.9811 118.402 82.5802 119.293 85.1051C120.185 87.7042 120.63 90.3776 120.185 93.051C120.11 93.4223 119.739 93.7193 119.368 93.6451C119.219 93.6451 119.145 93.5708 118.996 93.4966C117.14 91.8628 115.358 90.5261 113.575 89.5607C112.684 89.0409 111.793 88.6696 110.976 88.3726C110.159 88.0755 109.342 87.8527 108.526 87.7042C105.481 87.2586 101.991 87.6299 99.837 88.4468C99.3172 88.6696 98.8716 88.8924 98.426 89.1152C98.0547 89.3379 97.7577 89.5607 97.4607 89.8578C96.8666 90.3776 96.1982 91.1202 95.6041 92.0856C94.416 94.0906 93.7476 96.9868 93.9704 99.6602C93.9704 99.8087 93.9704 100.032 94.0446 100.18C94.0446 100.329 94.0446 100.551 94.1189 100.626C94.1189 100.848 94.1932 101.145 94.2674 101.442C94.416 102.037 94.6387 102.705 94.9358 103.373C95.5299 104.71 96.3467 106.195 97.3121 107.532C99.3172 110.28 101.991 112.73 105.035 114.512C105.778 114.958 106.595 115.404 107.412 115.701L108.006 115.998L108.674 116.22C109.12 116.369 109.639 116.592 110.085 116.74C112.016 117.334 114.021 117.928 116.026 118.3C120.11 119.117 124.492 119.488 129.022 119.265H129.096C129.467 119.265 129.764 119.488 129.764 119.859C129.838 120.156 129.69 120.379 129.541 120.528Z" fill="#2B4C80"/>
<path d="M249.473 158.994C258.31 158.92 266.85 160.925 275.316 163.747C279.549 165.158 283.856 166.718 288.014 168.648C289.054 169.168 290.094 169.688 291.133 170.208L292.693 171.025C292.916 171.173 293.213 171.322 293.51 171.545C293.807 171.693 294.104 171.916 294.327 172.064C296.629 173.55 298.708 175.48 300.564 177.634C304.278 182.015 306.654 187.659 307.174 193.526C307.397 196.422 307.248 199.392 306.58 202.214C306.431 202.883 306.208 203.625 305.986 204.294L305.614 205.333L305.169 206.521C304.575 208.081 303.758 209.492 302.867 210.754C301.084 213.279 299.005 215.284 296.703 216.918C294.401 218.478 291.876 219.666 289.277 220.334C286.678 221.002 284.004 221.225 281.479 220.928C280.217 220.78 278.955 220.557 277.766 220.186C277.172 219.963 276.578 219.814 276.058 219.517C275.464 219.294 274.944 218.997 274.425 218.626C274.053 218.403 273.979 217.958 274.202 217.661C274.276 217.512 274.35 217.438 274.499 217.364C276.652 216.398 278.435 215.284 280.068 214.17C280.885 213.576 281.628 212.982 282.296 212.388C282.965 211.794 283.633 211.126 284.227 210.532C286.529 208.007 288.089 205.185 288.757 202.883C288.906 202.289 288.98 201.769 288.98 201.323V200.506C288.98 200.135 288.98 199.838 288.98 199.467C288.98 198.13 288.906 196.793 288.757 195.531C288.311 193.006 287.569 190.555 286.232 188.105C285.564 186.842 284.747 185.654 283.856 184.466C283.707 184.317 283.633 184.169 283.484 184.02C283.336 183.872 283.262 183.723 283.039 183.575L282.074 182.535C281.405 181.867 280.737 181.124 279.994 180.456C277.247 177.634 274.128 175.035 270.786 172.658C267.444 170.282 263.88 168.277 260.241 166.198C256.602 164.193 252.889 162.188 249.027 160.257C248.73 160.108 248.582 159.737 248.73 159.366C249.027 159.069 249.25 158.994 249.473 158.994Z" fill="#2B4C80"/>
<path d="M268.781 136.419C270.786 137.236 272.642 138.201 274.647 139.018C276.578 139.835 278.583 140.578 280.514 141.32C284.45 142.731 288.237 144.291 292.099 145.479C296.034 146.593 299.97 147.41 303.832 147.93C304.797 148.078 305.763 148.152 306.728 148.227L308.139 148.375C308.362 148.375 308.584 148.375 308.733 148.375C308.956 148.375 309.104 148.375 309.327 148.375C310.887 148.375 312.297 148.301 313.634 148.004C316.382 147.558 318.758 146.667 320.986 145.405C322.1 144.736 323.214 143.994 324.254 143.177C324.551 142.954 324.773 142.731 325.07 142.509L325.664 141.914C326.036 141.617 326.407 141.246 326.704 140.726C328.189 138.796 329.378 135.825 329.897 132.409C329.972 131.592 330.12 130.701 330.194 129.736C330.269 128.845 330.269 127.879 330.194 126.914C330.046 124.983 329.749 122.904 329.229 120.602C329.155 120.23 329.378 119.859 329.749 119.71C329.897 119.71 330.046 119.71 330.194 119.71C330.788 119.933 331.308 120.156 331.902 120.453C332.496 120.75 333.016 121.047 333.536 121.418C334.576 122.087 335.541 122.904 336.432 123.795C338.215 125.577 339.7 127.805 340.739 130.256C341.853 132.706 342.522 135.38 342.745 138.201C342.967 141.023 342.67 143.92 341.779 146.89C341.333 148.375 340.739 149.86 339.923 151.271L339.254 152.385L338.66 153.276C338.289 153.87 337.843 154.465 337.398 154.984C335.615 157.212 333.388 159.217 331.011 160.851C326.11 164.119 320.169 165.827 314.451 165.678C311.629 165.604 308.807 165.158 306.208 164.341C305.911 164.267 305.54 164.119 305.243 164.044C304.946 163.97 304.574 163.821 304.352 163.747L302.718 163.079C301.678 162.633 300.564 162.113 299.525 161.594C295.366 159.589 291.43 157.212 287.643 154.762C283.93 152.311 280.217 149.86 276.949 146.816C275.316 145.33 273.756 143.771 272.197 142.212C270.711 140.578 269.152 139.093 267.889 137.236C267.667 136.939 267.741 136.493 268.038 136.345C268.261 136.345 268.558 136.345 268.781 136.419Z" fill="#2B4C80"/>
<path d="M274.944 119.413C279.474 119.636 283.856 119.265 287.94 118.448C290.019 118.077 291.95 117.482 293.881 116.888C294.326 116.74 294.846 116.517 295.292 116.369L295.96 116.146L296.554 115.849C297.371 115.477 298.114 115.106 298.931 114.661C301.975 112.878 304.649 110.353 306.654 107.68C307.619 106.343 308.51 104.858 309.03 103.521C309.327 102.853 309.55 102.185 309.698 101.591C309.773 101.294 309.847 100.997 309.847 100.774C309.847 100.699 309.847 100.477 309.921 100.328C309.921 100.18 309.921 99.9569 309.995 99.8083C310.218 97.0607 309.55 94.2388 308.362 92.2337C307.768 91.1941 307.099 90.4515 306.505 90.0059C306.208 89.7831 305.911 89.5603 305.54 89.2633C305.168 89.0405 304.723 88.8177 304.129 88.5949C301.975 87.7781 298.485 87.4068 295.44 87.8523C294.698 88.0009 293.881 88.2236 292.99 88.5207C292.099 88.8177 291.282 89.2633 290.391 89.7089C288.608 90.7485 286.826 92.011 284.969 93.6447C284.672 93.9417 284.227 93.8675 283.93 93.5704C283.856 93.4962 283.781 93.3476 283.781 93.1991C283.336 90.6 283.707 87.8523 284.672 85.2532C285.638 82.6541 287.197 80.1292 289.425 78.0499C290.613 77.0102 291.876 76.0448 293.138 75.3022C294.475 74.5596 295.812 73.8913 297.297 73.3715C300.193 72.4061 303.386 71.8862 306.728 72.1833C308.436 72.3318 310.144 72.7031 311.852 73.2972C312.743 73.5942 313.56 73.9655 314.377 74.4111C315.194 74.7824 316.011 75.3022 316.827 75.8221C318.387 76.8617 319.724 78.1242 320.838 79.4609C321.951 80.7976 322.917 82.2085 323.734 83.6937C326.927 89.5603 327.744 96.0953 326.63 102.259C326.556 102.63 326.481 103.002 326.407 103.447C326.333 103.818 326.259 104.19 326.11 104.635C325.887 105.452 325.59 106.269 325.293 107.086C324.699 108.645 323.956 110.056 323.214 111.319C321.654 113.918 319.724 116.146 317.719 118.077C313.56 121.938 308.659 124.686 303.312 126.097C301.975 126.468 300.564 126.691 299.228 126.839C298.856 126.839 298.559 126.914 298.188 126.914H297.223C296.554 126.914 295.96 126.988 295.292 126.988C292.767 126.988 290.242 126.691 287.791 126.32C285.341 125.874 282.964 125.131 280.737 124.24C279.623 123.795 278.509 123.275 277.469 122.681C276.429 122.087 275.39 121.493 274.424 120.676C274.127 120.453 274.053 120.007 274.276 119.785C274.499 119.487 274.721 119.413 274.944 119.413Z" fill="#2B4C80"/>
<path d="M153.379 106.492C153.528 107.532 153.899 108.646 154.196 109.685C154.567 110.725 154.939 111.765 155.384 112.73C156.275 114.735 157.241 116.666 158.355 118.597C160.582 122.384 163.256 125.8 166.152 129.067C169.048 132.335 172.241 135.305 175.509 138.201C178.776 141.023 182.192 143.623 185.831 145.999C193.034 150.677 200.906 154.168 209.075 157.287C211.154 158.029 213.233 158.772 215.313 159.514C217.318 160.183 219.62 161 221.848 161.742C226.229 163.376 230.611 165.084 234.992 167.163C239.299 169.168 243.606 171.47 247.765 174.292C251.923 177.114 256.008 180.456 259.498 184.837C260.389 185.951 261.206 187.139 261.949 188.328C262.691 189.59 263.434 190.927 264.028 192.263C265.216 194.937 266.107 197.759 266.553 200.655C266.998 203.551 267.073 206.522 266.85 209.418C266.553 212.314 265.884 215.136 264.993 217.883C264.028 220.631 262.691 223.23 261.132 225.681C259.498 228.131 257.567 230.359 255.191 232.29C254.003 233.255 252.815 234.147 251.478 234.889C250.141 235.632 248.73 236.374 247.319 236.894C246.577 237.191 245.834 237.414 245.091 237.563C244.275 237.785 243.458 238.008 242.567 238.082C240.859 238.305 239.151 238.379 237.517 238.157C234.249 237.785 231.353 236.671 228.977 235.186C226.526 233.701 224.595 231.77 222.962 229.839C221.254 227.909 219.768 225.904 218.506 223.75C217.244 221.671 216.204 219.443 215.536 217.141C215.461 216.77 215.61 216.473 215.981 216.324C216.204 216.25 216.427 216.324 216.575 216.473C218.283 218.032 220.065 219.294 221.922 220.483C223.779 221.671 225.709 222.636 227.64 223.379C229.571 224.121 231.576 224.567 233.358 224.79C235.14 225.012 236.7 225.012 237.962 224.864C238.631 224.79 239.151 224.567 239.67 224.344C239.967 224.27 240.19 224.121 240.413 223.973C240.71 223.824 241.081 223.676 241.378 223.453C242.641 222.71 243.755 221.819 244.869 220.705C247.022 218.552 248.73 215.73 249.77 212.685C250.735 209.566 251.032 206.299 250.661 203.106C250.438 201.546 250.067 199.987 249.547 198.501C249.027 197.016 248.285 195.605 247.245 194.194C245.314 191.372 242.492 188.625 239.299 186.174C236.106 183.723 232.541 181.496 228.828 179.416C225.115 177.337 221.179 175.48 217.169 173.772C215.164 172.881 213.159 172.139 211.006 171.173C208.852 170.282 206.698 169.317 204.619 168.351C200.386 166.421 196.153 164.341 192.069 161.891C187.985 159.514 184.049 156.841 180.262 153.871C176.474 150.9 172.984 147.633 169.791 144.217C168.157 142.509 166.672 140.652 165.261 138.796C163.85 136.939 162.439 135.008 161.177 133.003C158.652 128.993 156.424 124.835 154.79 120.379C153.973 118.151 153.305 115.923 152.859 113.621C152.414 111.319 152.117 109.017 152.339 106.566C152.339 106.195 152.637 105.972 153.008 105.972C153.082 105.898 153.379 106.121 153.379 106.492Z" fill="#2B4C80"/>
<path d="M40.8759 374.397C40.7937 374.397 40.7423 374.397 40.6909 374.397C38.604 374.397 36.5171 374.397 34.4199 374.397C34.3069 374.397 34.2349 374.367 34.1629 374.275C33.433 373.354 32.7031 372.444 31.9732 371.534C31.2742 370.665 30.5751 369.786 29.8658 368.917C28.9097 367.73 27.9536 366.534 26.9976 365.348C26.1032 364.243 25.2191 363.139 24.3247 362.024C23.3686 360.838 22.4229 359.652 21.4668 358.476C20.6546 357.464 19.8322 356.451 19.0201 355.439C18.9892 355.398 18.9687 355.357 18.9276 355.306C18.9892 355.296 19.0406 355.296 19.0818 355.296C21.2406 355.296 23.3892 355.296 25.5481 355.296C28.2209 355.296 30.8835 355.306 33.5564 355.306C34.5844 355.306 35.4274 354.631 35.6844 353.65C35.7255 353.496 35.7461 353.333 35.7461 353.179C35.7461 351.41 35.7564 349.641 35.7461 347.882C35.7461 347.105 35.2012 346.4 34.4611 346.195C34.2555 346.144 34.0396 346.103 33.834 346.103C27.4191 346.103 21.0042 346.093 14.5893 346.103C14.1267 346.103 13.6641 346.134 13.2015 346.205C11.5977 346.451 10.1379 347.064 8.84262 348.056C7.51647 349.079 6.51928 350.367 5.86134 351.911C5.63518 352.453 5.45013 353.005 5.33705 353.578C5.24452 354.1 5.19312 354.621 5.13144 355.143C5.12116 355.245 5.09032 355.275 4.9978 355.275C3.3838 355.275 1.76979 355.275 0.14551 355.275C0.104389 355.275 0.0735485 355.276 0.0221471 355.265C0.0221471 355.143 0.0118669 355.02 0.0221471 354.897C0.0427077 354.549 0.0632682 354.192 0.104389 353.844C0.14551 353.476 0.207192 353.108 0.279154 352.75C0.351116 352.382 0.443638 352.024 0.536161 351.666C0.721206 350.97 0.967932 350.296 1.25578 349.641C1.98568 348.015 2.97258 346.573 4.23706 345.316C5.40901 344.14 6.74545 343.189 8.23608 342.463C8.91458 342.136 9.60336 341.859 10.323 341.645C10.7342 341.522 11.1454 341.42 11.5566 341.338C12.0089 341.246 12.4613 341.154 12.9136 341.103C13.4482 341.041 13.9828 341 14.5276 341C21.0145 340.98 27.4705 340.98 33.9265 340.98C36.8255 341.103 38.9433 342.422 40.2283 345.019C40.5059 345.582 40.6909 346.175 40.7629 346.798C40.8143 347.207 40.8554 347.627 40.8554 348.046C40.8657 349.754 40.8759 351.461 40.8554 353.179C40.8348 354.907 40.2591 356.441 39.1591 357.771C38.4087 358.67 37.4937 359.345 36.4143 359.795C36.0545 359.949 35.6741 360.051 35.2938 360.163C34.6461 360.347 33.9779 360.368 33.3097 360.368C32.148 360.358 30.9863 360.368 29.8144 360.368C29.7733 360.368 29.7424 360.368 29.7013 360.368C29.6705 360.368 29.6293 360.378 29.619 360.399C29.6088 360.419 29.6293 360.46 29.6396 360.48C29.7938 360.675 29.948 360.869 30.1022 361.053C31.1714 362.382 32.2405 363.712 33.3097 365.041C34.2452 366.207 35.1807 367.372 36.1162 368.528C36.6096 369.141 37.1031 369.745 37.5965 370.358C38.6451 371.647 39.6937 372.935 40.7423 374.224C40.7834 374.265 40.8143 374.316 40.8759 374.397Z" fill="#2B4C80"/>
<path d="M15.6684 374.346C14.7946 374.346 13.9208 374.357 13.0367 374.336C12.6357 374.326 12.2348 374.254 11.8339 374.203C11.5974 374.173 11.361 374.142 11.1348 374.091C10.8264 374.029 10.518 373.958 10.2199 373.866C9.87035 373.764 9.51054 373.672 9.17129 373.539C8.57504 373.293 7.9685 373.048 7.40309 372.751C6.01525 372.025 4.7919 371.084 3.73303 369.939C2.53024 368.641 1.61529 367.178 0.977916 365.532C0.710629 364.857 0.515304 364.162 0.3611 363.446C0.155494 362.495 0.0629718 361.523 0.0629718 360.552C0.0629718 360.44 0.104093 360.409 0.217176 360.409C1.8209 360.409 3.41434 360.409 5.01806 360.409C5.14143 360.409 5.18255 360.46 5.18255 360.572C5.18255 360.726 5.19283 360.879 5.19283 361.022C5.21339 361.575 5.29563 362.127 5.42927 362.669C5.68628 363.732 6.13861 364.704 6.76571 365.593C7.71149 366.923 8.93485 367.914 10.4358 368.569C10.9601 368.794 11.5049 368.968 12.0601 369.09C12.646 369.223 13.2423 369.285 13.8488 369.285C15.3497 369.295 16.8609 369.285 18.3619 369.285C18.4133 369.285 18.4647 369.285 18.5058 369.285C18.5675 369.285 18.6086 369.315 18.6086 369.377C18.6086 369.407 18.6086 369.438 18.6086 369.459C18.6086 371.023 18.6086 372.588 18.6086 374.162C18.6086 374.346 18.6086 374.346 18.4133 374.346C17.4983 374.346 16.5834 374.346 15.6787 374.346C15.6684 374.346 15.6684 374.346 15.6684 374.346Z" fill="#2B4C80"/>
<path d="M61.053 348.473H59.2169C59.1645 348.18 59.068 347.92 58.9272 347.693C58.7865 347.463 58.6114 347.269 58.4019 347.109C58.1925 346.95 57.9536 346.83 57.6852 346.75C57.4201 346.667 57.1337 346.626 56.8261 346.626C56.2795 346.626 55.7951 346.76 55.3729 347.028C54.9507 347.293 54.6202 347.682 54.3812 348.196C54.1423 348.706 54.0229 349.33 54.0229 350.067C54.0229 350.816 54.1423 351.448 54.3812 351.962C54.6234 352.472 54.954 352.858 55.3729 353.12C55.7951 353.378 56.2779 353.507 56.8212 353.507C57.1223 353.507 57.4037 353.469 57.6656 353.393C57.9307 353.313 58.1679 353.196 58.3774 353.043C58.5901 352.89 58.7685 352.702 58.9125 352.479C59.0598 352.255 59.1612 352 59.2169 351.713L61.053 351.722C60.9842 352.188 60.8353 352.625 60.6062 353.034C60.3804 353.442 60.0842 353.803 59.7176 354.115C59.3511 354.425 58.9223 354.667 58.4314 354.843C57.9405 355.015 57.3955 355.101 56.7966 355.101C55.9129 355.101 55.1242 354.902 54.4303 354.503C53.7365 354.104 53.1899 353.528 52.7906 352.775C52.3914 352.022 52.1917 351.119 52.1917 350.067C52.1917 349.011 52.393 348.108 52.7956 347.358C53.1981 346.605 53.7463 346.029 54.4402 345.631C55.134 345.232 55.9195 345.032 56.7966 345.032C57.3563 345.032 57.8767 345.109 58.3578 345.262C58.8389 345.415 59.2676 345.64 59.644 345.937C60.0204 346.23 60.3297 346.591 60.5718 347.018C60.8173 347.443 60.9777 347.928 61.053 348.473Z" fill="#2B4C80"/>
<path d="M66.4845 355.111C65.7481 355.111 65.1099 354.953 64.5699 354.637C64.0299 354.321 63.611 353.879 63.3131 353.311C63.0186 352.743 62.8713 352.08 62.8713 351.32C62.8713 350.561 63.0186 349.896 63.3131 349.325C63.611 348.754 64.0299 348.31 64.5699 347.995C65.1099 347.679 65.7481 347.521 66.4845 347.521C67.2209 347.521 67.8591 347.679 68.3991 347.995C68.9392 348.31 69.3565 348.754 69.651 349.325C69.9488 349.896 70.0978 350.561 70.0978 351.32C70.0978 352.08 69.9488 352.743 69.651 353.311C69.3565 353.879 68.9392 354.321 68.3991 354.637C67.8591 354.953 67.2209 355.111 66.4845 355.111ZM66.4943 353.723C66.8936 353.723 67.2275 353.616 67.4958 353.402C67.7642 353.185 67.9639 352.895 68.0948 352.531C68.229 352.168 68.2961 351.762 68.2961 351.316C68.2961 350.866 68.229 350.459 68.0948 350.095C67.9639 349.729 67.7642 349.437 67.4958 349.22C67.2275 349.003 66.8936 348.894 66.4943 348.894C66.0852 348.894 65.7449 349.003 65.4732 349.22C65.2048 349.437 65.0036 349.729 64.8694 350.095C64.7385 350.459 64.673 350.866 64.673 351.316C64.673 351.762 64.7385 352.168 64.8694 352.531C65.0036 352.895 65.2048 353.185 65.4732 353.402C65.7449 353.616 66.0852 353.723 66.4943 353.723Z" fill="#2B4C80"/>
<path d="M72.1591 354.967V347.617H73.8577V348.866H73.9461C74.1032 348.444 74.3634 348.116 74.7267 347.88C75.09 347.64 75.5236 347.521 76.0276 347.521C76.5382 347.521 76.9686 347.642 77.3188 347.885C77.6722 348.124 77.921 348.451 78.065 348.866H78.1435C78.3104 348.457 78.5919 348.132 78.9879 347.889C79.3872 347.644 79.8601 347.521 80.4067 347.521C81.1005 347.521 81.6667 347.735 82.1053 348.162C82.5439 348.59 82.7631 349.213 82.7631 350.033V354.967H80.9811V350.301C80.9811 349.845 80.8567 349.512 80.608 349.301C80.3592 349.087 80.0549 348.98 79.6948 348.98C79.2661 348.98 78.9306 349.111 78.6884 349.373C78.4495 349.631 78.3301 349.968 78.3301 350.383V354.967H76.5873V350.229C76.5873 349.85 76.4695 349.547 76.2338 349.32C76.0014 349.094 75.6971 348.98 75.3207 348.98C75.0654 348.98 74.833 349.044 74.6236 349.172C74.4141 349.296 74.2472 349.473 74.1228 349.703C73.9985 349.93 73.9363 350.194 73.9363 350.497V354.967H72.1591Z" fill="#2B4C80"/>
<path d="M85.1191 354.967V347.617H86.8177V348.866H86.906C87.0631 348.444 87.3233 348.116 87.6866 347.88C88.0499 347.64 88.4836 347.521 88.9876 347.521C89.4981 347.521 89.9285 347.642 90.2787 347.885C90.6322 348.124 90.8809 348.451 91.0249 348.866H91.1035C91.2704 348.457 91.5518 348.132 91.9479 347.889C92.3471 347.644 92.8201 347.521 93.3666 347.521C94.0605 347.521 94.6267 347.735 95.0652 348.162C95.5038 348.59 95.7231 349.213 95.7231 350.033V354.967H93.941V350.301C93.941 349.845 93.8167 349.512 93.5679 349.301C93.3192 349.087 93.0148 348.98 92.6548 348.98C92.2261 348.98 91.8906 349.111 91.6484 349.373C91.4095 349.631 91.29 349.968 91.29 350.383V354.967H89.5472V350.229C89.5472 349.85 89.4294 349.547 89.1938 349.32C88.9614 349.094 88.657 348.98 88.2806 348.98C88.0253 348.98 87.793 349.044 87.5835 349.172C87.374 349.296 87.2071 349.473 87.0828 349.703C86.9584 349.93 86.8962 350.194 86.8962 350.497V354.967H85.1191Z" fill="#2B4C80"/>
<path d="M102.885 351.876V347.617H104.662V354.967H102.939V353.661H102.861C102.69 354.072 102.411 354.409 102.021 354.67C101.635 354.932 101.159 355.063 100.593 355.063C100.098 355.063 99.6614 354.956 99.2818 354.742C98.9054 354.525 98.6108 354.211 98.3981 353.799C98.1854 353.385 98.079 352.884 98.079 352.297V347.617H99.8562V352.029C99.8562 352.495 99.9871 352.865 100.249 353.139C100.511 353.413 100.854 353.551 101.28 353.551C101.542 353.551 101.795 353.488 102.041 353.364C102.286 353.239 102.488 353.054 102.645 352.809C102.805 352.56 102.885 352.249 102.885 351.876Z" fill="#2B4C80"/>
<path d="M108.82 350.66V354.967H107.043V347.617H108.741V348.866H108.83C109.003 348.454 109.28 348.127 109.659 347.885C110.042 347.642 110.515 347.521 111.078 347.521C111.599 347.521 112.052 347.629 112.438 347.846C112.828 348.063 113.129 348.377 113.341 348.789C113.557 349.201 113.664 349.7 113.661 350.287V354.967H111.883V350.555C111.883 350.064 111.752 349.679 111.491 349.402C111.232 349.124 110.874 348.985 110.415 348.985C110.105 348.985 109.828 349.052 109.586 349.186C109.347 349.317 109.159 349.507 109.021 349.756C108.887 350.004 108.82 350.306 108.82 350.66Z" fill="#2B4C80"/>
<path d="M116.02 354.967V347.617H117.797V354.967H116.02ZM116.914 346.573C116.632 346.573 116.39 346.482 116.187 346.301C115.984 346.116 115.883 345.894 115.883 345.635C115.883 345.374 115.984 345.152 116.187 344.97C116.39 344.785 116.632 344.693 116.914 344.693C117.198 344.693 117.441 344.785 117.64 344.97C117.843 345.152 117.945 345.374 117.945 345.635C117.945 345.894 117.843 346.116 117.64 346.301C117.441 346.482 117.198 346.573 116.914 346.573Z" fill="#2B4C80"/>
<path d="M123.467 355.111C122.714 355.111 122.068 354.949 121.528 354.627C120.991 354.305 120.577 353.86 120.286 353.292C119.998 352.721 119.854 352.064 119.854 351.32C119.854 350.574 120.001 349.915 120.296 349.344C120.59 348.77 121.006 348.323 121.542 348.004C122.083 347.682 122.721 347.521 123.457 347.521C124.069 347.521 124.611 347.631 125.082 347.851C125.557 348.068 125.935 348.376 126.216 348.775C126.498 349.17 126.658 349.633 126.697 350.162H124.999C124.93 349.808 124.766 349.513 124.508 349.277C124.252 349.038 123.91 348.918 123.482 348.918C123.118 348.918 122.799 349.014 122.524 349.205C122.249 349.394 122.035 349.665 121.881 350.019C121.731 350.373 121.655 350.797 121.655 351.292C121.655 351.793 121.731 352.223 121.881 352.584C122.032 352.941 122.243 353.217 122.515 353.412C122.789 353.603 123.112 353.699 123.482 353.699C123.743 353.699 123.977 353.651 124.184 353.555C124.393 353.456 124.568 353.314 124.709 353.129C124.85 352.944 124.946 352.719 124.999 352.455H126.697C126.655 352.975 126.498 353.436 126.226 353.838C125.954 354.236 125.584 354.549 125.116 354.776C124.648 354.999 124.099 355.111 123.467 355.111Z" fill="#2B4C80"/>
<path d="M130.879 355.115C130.402 355.115 129.971 355.032 129.588 354.866C129.209 354.697 128.908 354.449 128.685 354.12C128.466 353.791 128.356 353.386 128.356 352.904C128.356 352.49 128.435 352.147 128.592 351.876C128.749 351.604 128.963 351.387 129.235 351.225C129.506 351.062 129.812 350.939 130.153 350.856C130.496 350.77 130.852 350.708 131.218 350.67C131.66 350.625 132.018 350.585 132.293 350.55C132.568 350.512 132.768 350.454 132.892 350.378C133.02 350.298 133.084 350.175 133.084 350.009V349.981C133.084 349.62 132.974 349.341 132.755 349.143C132.535 348.945 132.22 348.846 131.807 348.846C131.372 348.846 131.027 348.939 130.771 349.124C130.519 349.309 130.349 349.528 130.261 349.78L128.601 349.55C128.732 349.103 128.948 348.73 129.25 348.43C129.551 348.127 129.919 347.9 130.354 347.751C130.789 347.597 131.27 347.521 131.797 347.521C132.161 347.521 132.522 347.562 132.882 347.645C133.242 347.728 133.571 347.865 133.869 348.057C134.167 348.245 134.406 348.502 134.586 348.827C134.769 349.153 134.861 349.559 134.861 350.048V354.967H133.152V353.957H133.093C132.985 354.161 132.833 354.353 132.637 354.531C132.444 354.707 132.2 354.849 131.905 354.957C131.614 355.063 131.272 355.115 130.879 355.115ZM131.341 353.842C131.698 353.842 132.007 353.774 132.269 353.637C132.531 353.496 132.732 353.311 132.873 353.082C133.017 352.852 133.089 352.601 133.089 352.33V351.464C133.033 351.509 132.938 351.55 132.804 351.588C132.673 351.627 132.526 351.66 132.362 351.689C132.198 351.718 132.036 351.743 131.876 351.766C131.716 351.788 131.577 351.807 131.459 351.823C131.194 351.858 130.956 351.915 130.747 351.995C130.537 352.075 130.372 352.187 130.251 352.33C130.13 352.471 130.069 352.652 130.069 352.876C130.069 353.195 130.189 353.436 130.428 353.598C130.667 353.761 130.971 353.842 131.341 353.842Z" fill="#2B4C80"/>
<path d="M140.966 347.617V348.956H136.631V347.617H140.966ZM137.702 345.855H139.479V352.756C139.479 352.989 139.515 353.168 139.587 353.292C139.662 353.413 139.76 353.496 139.881 353.541C140.002 353.586 140.137 353.608 140.284 353.608C140.395 353.608 140.497 353.6 140.588 353.584C140.683 353.568 140.755 353.554 140.804 353.541L141.104 354.895C141.009 354.927 140.873 354.962 140.696 355C140.523 355.039 140.31 355.061 140.058 355.067C139.613 355.08 139.212 355.015 138.855 354.871C138.498 354.724 138.215 354.498 138.006 354.192C137.8 353.885 137.698 353.503 137.702 353.043V345.855Z" fill="#2B4C80"/>
<path d="M143.005 354.967V347.617H144.783V354.967H143.005ZM143.899 346.573C143.617 346.573 143.375 346.482 143.172 346.301C142.969 346.116 142.868 345.894 142.868 345.635C142.868 345.374 142.969 345.152 143.172 344.97C143.375 344.785 143.617 344.693 143.899 344.693C144.184 344.693 144.426 344.785 144.626 344.97C144.828 345.152 144.93 345.374 144.93 345.635C144.93 345.894 144.828 346.116 144.626 346.301C144.426 346.482 144.184 346.573 143.899 346.573Z" fill="#2B4C80"/>
<path d="M150.452 355.111C149.716 355.111 149.078 354.953 148.538 354.637C147.998 354.321 147.579 353.879 147.281 353.311C146.986 352.743 146.839 352.08 146.839 351.32C146.839 350.561 146.986 349.896 147.281 349.325C147.579 348.754 147.998 348.31 148.538 347.995C149.078 347.679 149.716 347.521 150.452 347.521C151.189 347.521 151.827 347.679 152.367 347.995C152.907 348.31 153.324 348.754 153.619 349.325C153.917 349.896 154.066 350.561 154.066 351.32C154.066 352.08 153.917 352.743 153.619 353.311C153.324 353.879 152.907 354.321 152.367 354.637C151.827 354.953 151.189 355.111 150.452 355.111ZM150.462 353.723C150.861 353.723 151.195 353.616 151.464 353.402C151.732 353.185 151.932 352.895 152.063 352.531C152.197 352.168 152.264 351.762 152.264 351.316C152.264 350.866 152.197 350.459 152.063 350.095C151.932 349.729 151.732 349.437 151.464 349.22C151.195 349.003 150.861 348.894 150.462 348.894C150.053 348.894 149.713 349.003 149.441 349.22C149.173 349.437 148.971 349.729 148.837 350.095C148.706 350.459 148.641 350.866 148.641 351.316C148.641 351.762 148.706 352.168 148.837 352.531C148.971 352.895 149.173 353.185 149.441 353.402C149.713 353.616 150.053 353.723 150.462 353.723Z" fill="#2B4C80"/>
<path d="M157.904 350.66V354.967H156.127V347.617H157.825V348.866H157.914C158.087 348.454 158.364 348.127 158.744 347.885C159.126 347.642 159.599 347.521 160.162 347.521C160.683 347.521 161.136 347.629 161.522 347.846C161.912 348.063 162.213 348.377 162.425 348.789C162.641 349.201 162.748 349.7 162.745 350.287V354.967H160.967V350.555C160.967 350.064 160.837 349.679 160.575 349.402C160.316 349.124 159.958 348.985 159.5 348.985C159.189 348.985 158.912 349.052 158.67 349.186C158.431 349.317 158.243 349.507 158.105 349.756C157.971 350.004 157.904 350.306 157.904 350.66Z" fill="#2B4C80"/>
<path d="M54.5383 368.603C54.0605 368.603 53.6301 368.52 53.2472 368.354C52.8676 368.185 52.5665 367.936 52.3439 367.607C52.1246 367.279 52.015 366.874 52.015 366.392C52.015 365.977 52.0935 365.634 52.2506 365.363C52.4077 365.092 52.6221 364.875 52.8937 364.712C53.1654 364.549 53.4714 364.427 53.8118 364.344C54.1554 364.257 54.5105 364.195 54.8771 364.157C55.3189 364.112 55.6773 364.072 55.9522 364.037C56.2271 363.999 56.4268 363.942 56.5511 363.865C56.6788 363.785 56.7426 363.662 56.7426 363.497V363.468C56.7426 363.107 56.633 362.828 56.4137 362.63C56.1944 362.433 55.8786 362.334 55.4662 362.334C55.0309 362.334 54.6856 362.426 54.4303 362.611C54.1783 362.796 54.0081 363.015 53.9198 363.267L52.2604 363.037C52.3914 362.591 52.6074 362.217 52.9085 361.917C53.2096 361.614 53.5778 361.388 54.0131 361.238C54.4483 361.085 54.9295 361.008 55.4564 361.008C55.8197 361.008 56.1813 361.05 56.5413 361.133C56.9013 361.216 57.2303 361.353 57.5281 361.544C57.8259 361.732 58.0648 361.989 58.2449 362.315C58.4281 362.64 58.5198 363.047 58.5198 363.535V368.454H56.8113V367.445H56.7524C56.6444 367.649 56.4922 367.84 56.2959 368.019C56.1028 368.194 55.8589 368.336 55.5644 368.445C55.2731 368.55 54.9311 368.603 54.5383 368.603ZM54.9998 367.33C55.3566 367.33 55.6658 367.261 55.9277 367.124C56.1895 366.984 56.3908 366.799 56.5315 366.569C56.6755 366.339 56.7475 366.089 56.7475 365.818V364.951C56.6919 364.996 56.597 365.037 56.4628 365.076C56.3319 365.114 56.1846 365.148 56.0209 365.176C55.8573 365.205 55.6953 365.23 55.5349 365.253C55.3746 365.275 55.2355 365.294 55.1176 365.31C54.8525 365.345 54.6153 365.403 54.4058 365.483C54.1963 365.562 54.0311 365.674 53.91 365.818C53.7889 365.958 53.7283 366.14 53.7283 366.363C53.7283 366.682 53.8478 366.923 54.0867 367.086C54.3256 367.248 54.63 367.33 54.9998 367.33Z" fill="#2B4C80"/>
<path d="M62.6369 364.147V368.454H60.8597V361.104H62.5583V362.353H62.6467C62.8202 361.941 63.0967 361.614 63.4764 361.372C63.8593 361.129 64.3322 361.008 64.8951 361.008C65.4155 361.008 65.8688 361.117 66.255 361.334C66.6445 361.551 66.9456 361.865 67.1583 362.276C67.3743 362.688 67.4807 363.187 67.4774 363.774V368.454H65.7003V364.042C65.7003 363.551 65.5694 363.166 65.3075 362.889C65.049 362.611 64.6906 362.473 64.2324 362.473C63.9215 362.473 63.6449 362.539 63.4027 362.673C63.1638 362.804 62.9756 362.994 62.8382 363.243C62.704 363.492 62.6369 363.793 62.6369 364.147Z" fill="#2B4C80"/>
<path d="M72.6353 368.583C72.0429 368.583 71.5127 368.435 71.0447 368.138C70.5767 367.842 70.2069 367.411 69.9352 366.846C69.6636 366.282 69.5277 365.596 69.5277 364.789C69.5277 363.972 69.6652 363.283 69.9401 362.721C70.2183 362.157 70.593 361.731 71.0643 361.444C71.5356 361.153 72.0609 361.008 72.6402 361.008C73.0821 361.008 73.4453 361.082 73.7301 361.228C74.0148 361.372 74.2406 361.546 74.4076 361.75C74.5745 361.951 74.7038 362.141 74.7954 362.319H74.869V358.654H76.6511V368.454H74.9034V367.296H74.7954C74.7038 367.475 74.5712 367.665 74.3977 367.866C74.2243 368.063 73.9952 368.233 73.7104 368.373C73.4257 368.513 73.0673 368.583 72.6353 368.583ZM73.1311 367.162C73.5075 367.162 73.8283 367.063 74.0934 366.866C74.3585 366.665 74.5597 366.385 74.6972 366.028C74.8347 365.671 74.9034 365.254 74.9034 364.779C74.9034 364.304 74.8347 363.891 74.6972 363.54C74.563 363.189 74.3634 362.916 74.0983 362.721C73.8364 362.527 73.5141 362.429 73.1311 362.429C72.7351 362.429 72.4046 362.53 72.1395 362.731C71.8744 362.932 71.6747 363.209 71.5405 363.564C71.4064 363.918 71.3393 364.323 71.3393 364.779C71.3393 365.238 71.4064 365.648 71.5405 366.009C71.678 366.366 71.8793 366.649 72.1444 366.856C72.4128 367.06 72.7417 367.162 73.1311 367.162Z" fill="#2B4C80"/>
<path d="M83.1585 368.454V358.654H86.9288C87.7012 358.654 88.3492 358.785 88.8729 359.046C89.3998 359.308 89.7975 359.675 90.0658 360.147C90.3375 360.616 90.4733 361.163 90.4733 361.788C90.4733 362.417 90.3359 362.962 90.0609 363.425C89.7893 363.884 89.3884 364.24 88.8582 364.492C88.328 364.741 87.6767 364.865 86.9043 364.865H84.2189V363.391H86.6588C87.1105 363.391 87.4803 363.331 87.7683 363.209C88.0563 363.085 88.2691 362.905 88.4065 362.669C88.5472 362.429 88.6176 362.136 88.6176 361.788C88.6176 361.44 88.5472 361.144 88.4065 360.898C88.2658 360.649 88.0514 360.461 87.7634 360.333C87.4754 360.203 87.1039 360.137 86.649 360.137H84.9798V368.454H83.1585ZM88.3525 364.013L90.8415 368.454H88.8091L86.3643 364.013H88.3525Z" fill="#2B4C80"/>
<path d="M94.7942 368.603C94.3163 368.603 93.8859 368.52 93.503 368.354C93.1234 368.185 92.8223 367.936 92.5997 367.607C92.3804 367.279 92.2708 366.874 92.2708 366.392C92.2708 365.977 92.3493 365.634 92.5064 365.363C92.6635 365.092 92.8779 364.875 93.1496 364.712C93.4212 364.549 93.7272 364.427 94.0676 364.344C94.4112 364.257 94.7663 364.195 95.1329 364.157C95.5747 364.112 95.9331 364.072 96.208 364.037C96.4829 363.999 96.6826 363.942 96.807 363.865C96.9346 363.785 96.9984 363.662 96.9984 363.497V363.468C96.9984 363.107 96.8888 362.828 96.6695 362.63C96.4502 362.433 96.1344 362.334 95.722 362.334C95.2867 362.334 94.9414 362.426 94.6862 362.611C94.4342 362.796 94.264 363.015 94.1756 363.267L92.5163 363.037C92.6472 362.591 92.8632 362.217 93.1643 361.917C93.4654 361.614 93.8336 361.388 94.2689 361.238C94.7042 361.085 95.1853 361.008 95.7122 361.008C96.0755 361.008 96.4371 361.05 96.7971 361.133C97.1572 361.216 97.4861 361.353 97.7839 361.544C98.0817 361.732 98.3207 361.989 98.5007 362.315C98.6839 362.64 98.7756 363.047 98.7756 363.535V368.454H97.0672V367.445H97.0082C96.9002 367.649 96.7481 367.84 96.5517 368.019C96.3586 368.194 96.1148 368.336 95.8202 368.445C95.5289 368.55 95.1869 368.603 94.7942 368.603ZM95.2556 367.33C95.6124 367.33 95.9217 367.261 96.1835 367.124C96.4453 366.984 96.6466 366.799 96.7873 366.569C96.9313 366.339 97.0033 366.089 97.0033 365.818V364.951C96.9477 364.996 96.8528 365.037 96.7186 365.076C96.5877 365.114 96.4404 365.148 96.2768 365.176C96.1131 365.205 95.9511 365.23 95.7907 365.253C95.6304 365.275 95.4913 365.294 95.3735 365.31C95.1084 365.345 94.8711 365.403 94.6616 365.483C94.4521 365.562 94.2869 365.674 94.1658 365.818C94.0447 365.958 93.9841 366.14 93.9841 366.363C93.9841 366.682 94.1036 366.923 94.3425 367.086C94.5814 367.248 94.8858 367.33 95.2556 367.33Z" fill="#2B4C80"/>
<path d="M103.914 368.583C103.321 368.583 102.791 368.435 102.323 368.138C101.855 367.842 101.485 367.411 101.214 366.846C100.942 366.282 100.806 365.596 100.806 364.789C100.806 363.972 100.944 363.283 101.219 362.721C101.497 362.157 101.872 361.731 102.343 361.444C102.814 361.153 103.339 361.008 103.919 361.008C104.361 361.008 104.724 361.082 105.009 361.228C105.293 361.372 105.519 361.546 105.686 361.75C105.853 361.951 105.982 362.141 106.074 362.319H106.148V358.654H107.93V368.454H106.182V367.296H106.074C105.982 367.475 105.85 367.665 105.676 367.866C105.503 368.063 105.274 368.233 104.989 368.373C104.704 368.513 104.346 368.583 103.914 368.583ZM104.41 367.162C104.786 367.162 105.107 367.063 105.372 366.866C105.637 366.665 105.838 366.385 105.976 366.028C106.113 365.671 106.182 365.254 106.182 364.779C106.182 364.304 106.113 363.891 105.976 363.54C105.842 363.189 105.642 362.916 105.377 362.721C105.115 362.527 104.793 362.429 104.41 362.429C104.014 362.429 103.683 362.53 103.418 362.731C103.153 362.932 102.953 363.209 102.819 363.564C102.685 363.918 102.618 364.323 102.618 364.779C102.618 365.238 102.685 365.648 102.819 366.009C102.957 366.366 103.158 366.649 103.423 366.856C103.691 367.06 104.02 367.162 104.41 367.162Z" fill="#2B4C80"/>
<path d="M110.376 368.454V361.104H112.154V368.454H110.376ZM111.27 360.061C110.988 360.061 110.746 359.97 110.543 359.788C110.34 359.603 110.239 359.381 110.239 359.123C110.239 358.861 110.34 358.639 110.543 358.458C110.746 358.272 110.988 358.18 111.27 358.18C111.555 358.18 111.797 358.272 111.996 358.458C112.199 358.639 112.301 358.861 112.301 359.123C112.301 359.381 112.199 359.603 111.996 359.788C111.797 359.97 111.555 360.061 111.27 360.061Z" fill="#2B4C80"/>
<path d="M117.823 368.598C117.087 368.598 116.449 368.44 115.909 368.124C115.369 367.808 114.95 367.366 114.652 366.798C114.357 366.231 114.21 365.567 114.21 364.808C114.21 364.049 114.357 363.383 114.652 362.812C114.95 362.241 115.369 361.798 115.909 361.482C116.449 361.166 117.087 361.008 117.823 361.008C118.56 361.008 119.198 361.166 119.738 361.482C120.278 361.798 120.695 362.241 120.99 362.812C121.287 363.383 121.436 364.049 121.436 364.808C121.436 365.567 121.287 366.231 120.99 366.798C120.695 367.366 120.278 367.808 119.738 368.124C119.198 368.44 118.56 368.598 117.823 368.598ZM117.833 367.21C118.232 367.21 118.566 367.103 118.834 366.889C119.103 366.672 119.303 366.382 119.433 366.018C119.568 365.655 119.635 365.25 119.635 364.803C119.635 364.353 119.568 363.946 119.433 363.583C119.303 363.216 119.103 362.924 118.834 362.707C118.566 362.49 118.232 362.382 117.833 362.382C117.424 362.382 117.084 362.49 116.812 362.707C116.543 362.924 116.342 363.216 116.208 363.583C116.077 363.946 116.012 364.353 116.012 364.803C116.012 365.25 116.077 365.655 116.208 366.018C116.342 366.382 116.543 366.672 116.812 366.889C117.084 367.103 117.424 367.21 117.833 367.21Z" fill="#2B4C80"/>
<path d="M125.275 364.147V368.454H123.498V361.104H125.196V362.353H125.285C125.458 361.941 125.735 361.614 126.114 361.372C126.497 361.129 126.97 361.008 127.533 361.008C128.054 361.008 128.507 361.117 128.893 361.334C129.283 361.551 129.584 361.865 129.796 362.276C130.012 362.688 130.119 363.187 130.115 363.774V368.454H128.338V364.042C128.338 363.551 128.207 363.166 127.946 362.889C127.687 362.611 127.329 362.473 126.87 362.473C126.56 362.473 126.283 362.539 126.041 362.673C125.802 362.804 125.614 362.994 125.476 363.243C125.342 363.492 125.275 363.793 125.275 364.147Z" fill="#2B4C80"/>
<path d="M134.645 368.603C134.167 368.603 133.737 368.52 133.354 368.354C132.974 368.185 132.673 367.936 132.451 367.607C132.231 367.279 132.122 366.874 132.122 366.392C132.122 365.977 132.2 365.634 132.357 365.363C132.514 365.092 132.729 364.875 133 364.712C133.272 364.549 133.578 364.427 133.918 364.344C134.262 364.257 134.617 364.195 134.984 364.157C135.426 364.112 135.784 364.072 136.059 364.037C136.334 363.999 136.533 363.942 136.658 363.865C136.785 363.785 136.849 363.662 136.849 363.497V363.468C136.849 363.107 136.74 362.828 136.52 362.63C136.301 362.433 135.985 362.334 135.573 362.334C135.138 362.334 134.792 362.426 134.537 362.611C134.285 362.796 134.115 363.015 134.026 363.267L132.367 363.037C132.498 362.591 132.714 362.217 133.015 361.917C133.316 361.614 133.684 361.388 134.12 361.238C134.555 361.085 135.036 361.008 135.563 361.008C135.926 361.008 136.288 361.05 136.648 361.133C137.008 361.216 137.337 361.353 137.635 361.544C137.933 361.732 138.171 361.989 138.351 362.315C138.535 362.64 138.626 363.047 138.626 363.535V368.454H136.918V367.445H136.859C136.751 367.649 136.599 367.84 136.402 368.019C136.209 368.194 135.966 368.336 135.671 368.445C135.38 368.55 135.038 368.603 134.645 368.603ZM135.106 367.33C135.463 367.33 135.772 367.261 136.034 367.124C136.296 366.984 136.497 366.799 136.638 366.569C136.782 366.339 136.854 366.089 136.854 365.818V364.951C136.798 364.996 136.704 365.037 136.569 365.076C136.438 365.114 136.291 365.148 136.128 365.176C135.964 365.205 135.802 365.23 135.642 365.253C135.481 365.275 135.342 365.294 135.224 365.31C134.959 365.345 134.722 365.403 134.512 365.483C134.303 365.562 134.138 365.674 134.017 365.818C133.895 365.958 133.835 366.14 133.835 366.363C133.835 366.682 133.954 366.923 134.193 367.086C134.432 367.248 134.737 367.33 135.106 367.33Z" fill="#2B4C80"/>
<path d="M147.432 361.104L144.746 368.454H142.783L140.097 361.104H141.992L143.725 366.564H143.804L145.542 361.104H147.432Z" fill="#2B4C80"/>
<path d="M149.215 368.454V361.104H150.992V368.454H149.215ZM150.108 360.061C149.827 360.061 149.584 359.97 149.382 359.788C149.179 359.603 149.077 359.381 149.077 359.123C149.077 358.861 149.179 358.639 149.382 358.458C149.584 358.272 149.827 358.18 150.108 358.18C150.393 358.18 150.635 358.272 150.835 358.458C151.038 358.639 151.139 358.861 151.139 359.123C151.139 359.381 151.038 359.603 150.835 359.788C150.635 359.97 150.393 360.061 150.108 360.061Z" fill="#2B4C80"/>
<path d="M156.652 371.364C156.013 371.364 155.465 371.279 155.007 371.11C154.549 370.944 154.181 370.721 153.902 370.44C153.624 370.159 153.431 369.848 153.323 369.507L154.924 369.129C154.996 369.273 155.1 369.415 155.238 369.555C155.375 369.698 155.56 369.817 155.793 369.909C156.028 370.005 156.324 370.053 156.681 370.053C157.185 370.053 157.602 369.933 157.933 369.694C158.264 369.458 158.429 369.068 158.429 368.526V367.133H158.34C158.249 367.312 158.115 367.496 157.938 367.684C157.764 367.872 157.534 368.03 157.246 368.158C156.961 368.285 156.603 368.349 156.171 368.349C155.591 368.349 155.066 368.217 154.595 367.952C154.127 367.684 153.754 367.285 153.475 366.755C153.2 366.223 153.063 365.556 153.063 364.755C153.063 363.948 153.2 363.267 153.475 362.712C153.754 362.153 154.128 361.731 154.6 361.444C155.071 361.153 155.596 361.008 156.175 361.008C156.617 361.008 156.981 361.082 157.265 361.228C157.553 361.372 157.782 361.546 157.953 361.75C158.123 361.951 158.252 362.141 158.34 362.319H158.439V361.104H160.191V368.574C160.191 369.202 160.037 369.722 159.73 370.134C159.422 370.546 159.002 370.853 158.468 371.058C157.935 371.262 157.329 371.364 156.652 371.364ZM156.666 366.99C157.043 366.99 157.363 366.901 157.629 366.722C157.894 366.543 158.095 366.286 158.232 365.952C158.37 365.617 158.439 365.215 158.439 364.746C158.439 364.283 158.37 363.878 158.232 363.53C158.098 363.182 157.899 362.913 157.633 362.721C157.372 362.527 157.049 362.429 156.666 362.429C156.27 362.429 155.94 362.53 155.675 362.731C155.41 362.932 155.21 363.208 155.076 363.559C154.942 363.907 154.874 364.302 154.874 364.746C154.874 365.195 154.942 365.589 155.076 365.928C155.213 366.263 155.414 366.524 155.68 366.712C155.948 366.897 156.277 366.99 156.666 366.99Z" fill="#2B4C80"/>
<path d="M164.735 368.603C164.258 368.603 163.827 368.52 163.444 368.354C163.065 368.185 162.764 367.936 162.541 367.607C162.322 367.279 162.212 366.874 162.212 366.392C162.212 365.977 162.291 365.634 162.448 365.363C162.605 365.092 162.819 364.875 163.091 364.712C163.362 364.549 163.668 364.427 164.009 364.344C164.353 364.257 164.708 364.195 165.074 364.157C165.516 364.112 165.874 364.072 166.149 364.037C166.424 363.999 166.624 363.942 166.748 363.865C166.876 363.785 166.94 363.662 166.94 363.497V363.468C166.94 363.107 166.83 362.828 166.611 362.63C166.392 362.433 166.076 362.334 165.663 362.334C165.228 362.334 164.883 362.426 164.627 362.611C164.375 362.796 164.205 363.015 164.117 363.267L162.458 363.037C162.588 362.591 162.804 362.217 163.106 361.917C163.407 361.614 163.775 361.388 164.21 361.238C164.645 361.085 165.127 361.008 165.653 361.008C166.017 361.008 166.378 361.05 166.738 361.133C167.098 361.216 167.427 361.353 167.725 361.544C168.023 361.732 168.262 361.989 168.442 362.315C168.625 362.64 168.717 363.047 168.717 363.535V368.454H167.008V367.445H166.95C166.842 367.649 166.689 367.84 166.493 368.019C166.3 368.194 166.056 368.336 165.761 368.445C165.47 368.55 165.128 368.603 164.735 368.603ZM165.197 367.33C165.554 367.33 165.863 367.261 166.125 367.124C166.387 366.984 166.588 366.799 166.729 366.569C166.873 366.339 166.945 366.089 166.945 365.818V364.951C166.889 364.996 166.794 365.037 166.66 365.076C166.529 365.114 166.382 365.148 166.218 365.176C166.054 365.205 165.892 365.23 165.732 365.253C165.572 365.275 165.433 365.294 165.315 365.31C165.05 365.345 164.812 365.403 164.603 365.483C164.393 365.562 164.228 365.674 164.107 365.818C163.986 365.958 163.925 366.14 163.925 366.363C163.925 366.682 164.045 366.923 164.284 367.086C164.523 367.248 164.827 367.33 165.197 367.33Z" fill="#2B4C80"/>
<path d="M174.822 361.104V362.444H170.487V361.104H174.822ZM171.558 359.343H173.335V366.243C173.335 366.476 173.371 366.655 173.443 366.779C173.518 366.901 173.616 366.984 173.737 367.028C173.858 367.073 173.993 367.095 174.14 367.095C174.251 367.095 174.353 367.087 174.444 367.071C174.539 367.055 174.611 367.041 174.66 367.028L174.96 368.383C174.865 368.414 174.729 368.449 174.552 368.488C174.379 368.526 174.166 368.548 173.914 368.555C173.469 368.568 173.068 368.502 172.711 368.359C172.354 368.212 172.071 367.985 171.862 367.679C171.656 367.373 171.554 366.99 171.558 366.531V359.343Z" fill="#2B4C80"/>
<path d="M176.861 368.454V361.104H178.639V368.454H176.861ZM177.755 360.061C177.474 360.061 177.231 359.97 177.028 359.788C176.826 359.603 176.724 359.381 176.724 359.123C176.724 358.861 176.826 358.639 177.028 358.458C177.231 358.272 177.474 358.18 177.755 358.18C178.04 358.18 178.282 358.272 178.482 358.458C178.684 358.639 178.786 358.861 178.786 359.123C178.786 359.381 178.684 359.603 178.482 359.788C178.282 359.97 178.04 360.061 177.755 360.061Z" fill="#2B4C80"/>
<path d="M184.308 368.598C183.572 368.598 182.934 368.44 182.394 368.124C181.854 367.808 181.435 367.366 181.137 366.798C180.842 366.231 180.695 365.567 180.695 364.808C180.695 364.049 180.842 363.383 181.137 362.812C181.435 362.241 181.854 361.798 182.394 361.482C182.934 361.166 183.572 361.008 184.308 361.008C185.045 361.008 185.683 361.166 186.223 361.482C186.763 361.798 187.18 362.241 187.475 362.812C187.773 363.383 187.922 364.049 187.922 364.808C187.922 365.567 187.773 366.231 187.475 366.798C187.18 367.366 186.763 367.808 186.223 368.124C185.683 368.44 185.045 368.598 184.308 368.598ZM184.318 367.21C184.717 367.21 185.051 367.103 185.32 366.889C185.588 366.672 185.788 366.382 185.919 366.018C186.053 365.655 186.12 365.25 186.12 364.803C186.12 364.353 186.053 363.946 185.919 363.583C185.788 363.216 185.588 362.924 185.32 362.707C185.051 362.49 184.717 362.382 184.318 362.382C183.909 362.382 183.569 362.49 183.297 362.707C183.029 362.924 182.827 363.216 182.693 363.583C182.562 363.946 182.497 364.353 182.497 364.803C182.497 365.25 182.562 365.655 182.693 366.018C182.827 366.382 183.029 366.672 183.297 366.889C183.569 367.103 183.909 367.21 184.318 367.21Z" fill="#2B4C80"/>
<path d="M191.76 364.147V368.454H189.983V361.104H191.682V362.353H191.77C191.943 361.941 192.22 361.614 192.6 361.372C192.982 361.129 193.455 361.008 194.018 361.008C194.539 361.008 194.992 361.117 195.378 361.334C195.768 361.551 196.069 361.865 196.282 362.276C196.498 362.688 196.604 363.187 196.601 363.774V368.454H194.823V364.042C194.823 363.551 194.693 363.166 194.431 362.889C194.172 362.611 193.814 362.473 193.356 362.473C193.045 362.473 192.768 362.539 192.526 362.673C192.287 362.804 192.099 362.994 191.961 363.243C191.827 363.492 191.76 363.793 191.76 364.147Z" fill="#2B4C80"/>
</svg>
